<svg width="23" height="37" viewBox="0 0 23 37" fill="none" xmlns="http://www.w3.org/2000/svg">
<path d="M5.56454 0.67627H0.607819V36.4749H5.56454V23.1939C5.56454 20.9472 6.12338 19.1747 7.24108 17.9265C8.35877 16.6783 9.88952 16.0292 11.7847 16.0292C13.4127 16.0292 14.7733 16.6284 15.8667 17.7767C16.9601 18.95 17.519 20.4229 17.519 22.1954V36.4998H22.5V22.1954C22.5 18.9001 21.601 16.3038 19.803 14.3566C18.0049 12.4094 15.6481 11.4358 12.7809 11.4358C11.9548 11.4358 11.1287 11.5357 10.3269 11.7604C9.50076 11.985 8.84472 12.2347 8.31017 12.5093C7.77562 12.7839 7.26537 13.0835 6.80372 13.433C6.34206 13.7825 6.02619 14.0321 5.88041 14.1819C5.73462 14.3317 5.61313 14.4315 5.56454 14.5064V0.67627Z" fill="#F0145A"/>
</svg>
